<svg viewBox="0 0 1080 1080" fill="none" xmlns="http://www.w3.org/2000/svg">      <defs>  <filter id="filter" x="-20%" y="-20%" width="140%" height="140%" filterUnits="objectBoundingBox" primitiveUnits="userSpaceOnUse" color-interpolation-filters="linearRGB">    <feMorphology operator="dilate" radius="20 20" in="SourceAlpha" result="morphology"/>    <feFlood flood-color="#ffffff" flood-opacity="1" result="flood"/>    <feComposite in="flood" in2="morphology" operator="in" result="composite"/>    <feMerge result="merge">          <feMergeNode in="composite" result="mergeNode"/>      <feMergeNode in="SourceGraphic" result="mergeNode1"/>      </feMerge>  </filter></defs>      <g id="notion-avatar" filter="url(#filter)">        <g id="notion-avatar-face" fill="#ffffff">      <!--?xml version="1.0" encoding="UTF-8"?-->    <!-- Generator: Sketch 63.1 (92452) - https://sketch.com -->    <title>Face/ 12</title>    <desc>Created with Sketch.</desc>    <g id="Face/-12" stroke="none" stroke-width="1" fill-rule="evenodd" stroke-linecap="round" stroke-linejoin="round">        <path d="M532,379 C664.54834,379 772,486.45166 772,619 C772,642.160109 793.234546,666.244677 787.453024,688.979248 C773.583554,743.517917 768.701879,951.343666 608,919 C508.628533,899 373.476049,816.010833 320.189513,718.584987 C317.498129,718.859681 314.765451,719 312,719 C267.81722,719 232,683.18278 232,639 C232,599.134956 261.158843,566.080325 299.312086,560.00055 C325.599297,455.979213 419.809919,379 532,379 Z M295.858895,624.545187 L304.141105,655.454813" id="Path" stroke="#000000" stroke-width="24"/>    </g>    </g><g id="notion-avatar-nose">      <g id="Nose/ 13"><path id="Path" fill-rule="evenodd" clip-rule="evenodd" d="M644 560C644 560 665.892 613.522 673 623C676 627 693.906 641.256 692.774 653.58C690.065 683.076 644 684.359 644 684.359C644 684.359 700 689.489 700 653.58C700 637.222 687 632 674 620C666.959 613.5 644 560 644 560Z" fill="black" stroke="black" stroke-width="6" stroke-linecap="round" stroke-linejoin="round"/></g>    </g><g id="notion-avatar-mouth">      <g id="Mouth/ 15"><g id="Group"><path id="Path" d="M505.348 782.386C505.348 782.386 499.053 772.522 503.446 759.4C507.839 746.278 519.439 740.299 519.439 740.299" stroke="black" stroke-width="6" stroke-linecap="round" stroke-linejoin="round"/><path id="Path_2" fill-rule="evenodd" clip-rule="evenodd" d="M545.613 766.395L615.22 752.181L643.717 751.83L664.424 746.139L688.54 748.846C688.54 748.846 671.891 755.298 639.869 759.23C607.847 763.161 545.613 766.395 545.613 766.395Z" stroke="black" stroke-width="12" stroke-linecap="round" stroke-linejoin="round"/><path id="Path_3" d="M611 803C611 803 626.338 804.035 634 803C641.662 801.965 648 798 648 798" stroke="black" stroke-width="6" stroke-linecap="round" stroke-linejoin="round"/></g></g>    </g><g id="notion-avatar-eyes">      <!--?xml version="1.0" encoding="UTF-8"?-->    <title>Eyes/ 9</title>    <g id="Eyes/-9" stroke="none" stroke-width="1" fill="none" fill-rule="evenodd">        <path d="M570,507 C575.854822,507 581.122051,511.025253 584.779642,517.440484 L578,531 L589.369946,531.000208 C589.781247,533.557105 590,536.237678 590,539 C590,556.673112 581.045695,571 570,571 C558.954305,571 550,556.673112 550,539 C550,521.326888 558.954305,507 570,507 Z M708,507 C713.854822,507 719.122051,511.025253 722.779642,517.440484 L716,531 L727.369946,531.000208 C727.781247,533.557105 728,536.237678 728,539 C728,556.673112 719.045695,571 708,571 C696.954305,571 688,556.673112 688,539 C688,521.326888 696.954305,507 708,507 Z" id="Combined-Shape" fill="#000000"/>    </g>    </g><g id="notion-avatar-eyebrows">      <g id="Eyebrows/ 15"><g id="Group"><path id="Path" fill-rule="evenodd" clip-rule="evenodd" d="M622.289 506.124C622.289 506.124 622.95 493.517 619.376 491.698C615.802 489.88 558.683 477.099 542.118 478.134C525.552 479.169 502.752 494.15 502.752 494.15C502.752 494.15 526.26 485.069 547.179 487.167C568.098 489.265 622.289 506.124 622.289 506.124Z" fill="black" stroke="black" stroke-width="4" stroke-linecap="round" stroke-linejoin="round"/><path id="Path_2" fill-rule="evenodd" clip-rule="evenodd" d="M654.711 506.124C654.711 506.124 654.05 493.517 657.624 491.698C661.198 489.88 718.317 477.099 734.882 478.134C751.448 479.169 774.248 494.15 774.248 494.15C774.248 494.15 750.74 485.069 729.821 487.167C708.902 489.265 654.711 506.124 654.711 506.124Z" fill="black" stroke="black" stroke-width="4" stroke-linecap="round" stroke-linejoin="round"/></g></g>    </g><g id="notion-avatar-glasses">      <g id="Glasses/ 11"><g id="Group"><path id="Path" fill-rule="evenodd" clip-rule="evenodd" d="M481 508L293 541L289 550L481 521V508Z" fill="black" stroke="black" stroke-width="4" stroke-linecap="round" stroke-linejoin="round"/><g id="Combined Shape"><path fill-rule="evenodd" clip-rule="evenodd" d="M474 506.65L507.276 500.835C507.276 500.835 526.938 483 559.08 483C591.221 483 624.497 512.466 624.497 512.466H640H655.503C655.503 512.466 688.779 483 720.92 483C753.061 483 772.724 500.835 772.724 500.835L806 506.65V525.26L794.656 531.076C794.656 531.076 790.875 593.497 768.187 612.107C745.499 630.717 709.88 630.544 684.241 612.107C658.603 593.671 650.588 531.076 650.588 531.076H640H629.412C629.412 531.076 621.397 593.671 595.759 612.107C570.12 630.544 534.501 630.717 511.813 612.107C489.125 593.497 485.344 531.076 485.344 531.076L474 525.26V506.65ZM507.685 512.117C504.389 514.911 502.191 517.487 501.219 519.374C500.749 520.285 500.131 522.488 499.556 525.707C498.986 528.903 498.468 533.045 498.178 537.791C497.598 547.287 497.931 559.179 500.56 570.745C503.189 582.313 508.107 593.517 516.669 601.686C525.217 609.843 537.443 615.018 554.787 614.459L554.791 614.459C571.028 614.086 583.045 608.636 591.886 600.564C600.736 592.483 606.431 581.748 609.964 570.769C613.497 559.792 614.859 548.598 615.061 539.633C615.162 535.151 614.973 531.233 614.622 528.186C614.447 526.661 614.232 525.36 613.994 524.318C613.754 523.266 613.498 522.508 613.253 522.051C608.888 513.917 593.331 495.684 561.12 494.551C545.01 493.984 531.02 498.259 520.553 503.656C515.319 506.355 510.972 509.331 507.685 512.117ZM520.095 502.767C530.688 497.305 544.847 492.977 561.155 493.551C593.778 494.699 609.629 513.183 614.134 521.578C614.443 522.155 614.723 523.016 614.969 524.095C615.217 525.183 615.438 526.522 615.616 528.071C615.972 531.171 616.163 535.135 616.061 539.655C615.857 548.695 614.484 559.988 610.916 571.076C607.348 582.162 601.577 593.069 592.56 601.302C583.535 609.543 571.284 615.079 554.817 615.458C537.239 616.025 524.743 610.773 515.978 602.41C507.226 594.058 502.24 582.647 499.585 570.966C496.929 559.283 496.596 547.291 497.18 537.73C497.472 532.949 497.994 528.769 498.572 525.532C499.145 522.318 499.783 519.977 500.33 518.916C501.39 516.859 503.701 514.183 507.039 511.354C510.386 508.517 514.798 505.499 520.095 502.767ZM772.315 512.117C775.611 514.911 777.809 517.487 778.781 519.374C779.251 520.285 779.869 522.488 780.444 525.707C781.014 528.903 781.532 533.045 781.822 537.791C782.402 547.287 782.069 559.179 779.44 570.745C776.811 582.313 771.893 593.517 763.331 601.686C754.783 609.843 742.557 615.018 725.213 614.459L725.209 614.459C708.972 614.086 696.955 608.636 688.114 600.564C679.264 592.483 673.569 581.748 670.036 570.769C666.503 559.792 665.141 548.598 664.939 539.633C664.838 535.151 665.027 531.233 665.378 528.186C665.553 526.661 665.768 525.36 666.006 524.318C666.246 523.266 666.502 522.508 666.747 522.051C671.112 513.917 686.669 495.684 718.88 494.551C734.99 493.984 748.98 498.259 759.447 503.656C764.681 506.355 769.028 509.331 772.315 512.117ZM759.905 502.767C749.312 497.305 735.153 492.977 718.845 493.551C686.222 494.699 670.371 513.183 665.866 521.578C665.557 522.155 665.277 523.016 665.031 524.095C664.783 525.183 664.562 526.522 664.384 528.071C664.028 531.171 663.837 535.135 663.939 539.655C664.143 548.695 665.516 559.988 669.084 571.076C672.652 582.162 678.423 593.069 687.44 601.302C696.465 609.543 708.716 615.079 725.183 615.458C742.761 616.025 755.257 610.773 764.022 602.41C772.774 594.058 777.76 582.647 780.415 570.966C783.071 559.283 783.404 547.291 782.82 537.73C782.528 532.949 782.006 528.769 781.428 525.532C780.855 522.318 780.217 519.977 779.67 518.916C778.61 516.859 776.299 514.183 772.961 511.354C769.614 508.517 765.202 505.499 759.905 502.767Z" fill="black"/><path d="M507.276 500.835L507.62 502.805C507.993 502.74 508.339 502.57 508.619 502.316L507.276 500.835ZM474 506.65L473.656 504.68C472.698 504.847 472 505.679 472 506.65H474ZM624.497 512.466L623.171 513.963C623.536 514.287 624.008 514.466 624.497 514.466V512.466ZM655.503 512.466V514.466C655.992 514.466 656.464 514.287 656.829 513.963L655.503 512.466ZM772.724 500.835L771.381 502.316C771.661 502.57 772.007 502.74 772.38 502.805L772.724 500.835ZM806 506.65H808C808 505.679 807.302 504.847 806.344 504.68L806 506.65ZM806 525.26L806.912 527.04C807.58 526.698 808 526.011 808 525.26H806ZM794.656 531.076L793.744 529.296C793.115 529.619 792.702 530.249 792.66 530.955L794.656 531.076ZM684.241 612.107L685.409 610.484L684.241 612.107ZM650.588 531.076L652.571 530.822C652.444 529.824 651.594 529.076 650.588 529.076V531.076ZM629.412 531.076V529.076C628.406 529.076 627.556 529.824 627.429 530.822L629.412 531.076ZM595.759 612.107L594.591 610.484L595.759 612.107ZM485.344 531.076L487.34 530.955C487.298 530.249 486.885 529.619 486.256 529.296L485.344 531.076ZM474 525.26H472C472 526.011 472.42 526.698 473.088 527.04L474 525.26ZM501.219 519.374L502.997 520.29L501.219 519.374ZM507.685 512.117L506.392 510.591L507.685 512.117ZM499.556 525.707L501.525 526.059L501.525 526.059L499.556 525.707ZM498.178 537.791L500.175 537.913L498.178 537.791ZM500.56 570.745L502.51 570.301L500.56 570.745ZM516.669 601.686L518.049 600.239H518.049L516.669 601.686ZM554.787 614.459L554.734 612.459L554.722 612.46L554.787 614.459ZM554.791 614.459L554.745 612.459L554.739 612.459L554.791 614.459ZM591.886 600.564L590.537 599.087L591.886 600.564ZM609.964 570.769L611.868 571.382L609.964 570.769ZM615.061 539.633L613.062 539.588V539.588L615.061 539.633ZM614.622 528.186L616.609 527.957V527.957L614.622 528.186ZM613.994 524.318L615.944 523.873L613.994 524.318ZM613.253 522.051L611.491 522.997V522.997L613.253 522.051ZM561.12 494.551L561.19 492.552L561.12 494.551ZM520.553 503.656L521.469 505.434L520.553 503.656ZM561.155 493.551L561.085 495.55L561.155 493.551ZM520.095 502.767L519.178 500.99L520.095 502.767ZM614.134 521.578L612.372 522.524L612.372 522.524L614.134 521.578ZM614.969 524.095L613.019 524.54L613.019 524.54L614.969 524.095ZM615.616 528.071L613.629 528.3V528.3L615.616 528.071ZM616.061 539.655L614.061 539.61L616.061 539.655ZM610.916 571.076L609.012 570.463L610.916 571.076ZM592.56 601.302L591.212 599.825H591.212L592.56 601.302ZM554.817 615.458L554.771 613.459C554.764 613.459 554.758 613.459 554.752 613.459L554.817 615.458ZM515.978 602.41L517.359 600.963L515.978 602.41ZM499.585 570.966L501.535 570.523L499.585 570.966ZM497.18 537.73L495.184 537.609V537.609L497.18 537.73ZM498.572 525.532L496.603 525.18L498.572 525.532ZM500.33 518.916L502.108 519.832L500.33 518.916ZM507.039 511.354L505.746 509.828L507.039 511.354ZM778.781 519.374L780.559 518.458V518.458L778.781 519.374ZM772.315 512.117L773.608 510.591V510.591L772.315 512.117ZM780.444 525.707L782.413 525.356V525.356L780.444 525.707ZM781.822 537.791L783.818 537.67V537.669L781.822 537.791ZM779.44 570.745L781.39 571.188V571.188L779.44 570.745ZM763.331 601.686L761.951 600.239L763.331 601.686ZM725.213 614.459L725.278 612.46L725.266 612.459L725.213 614.459ZM725.209 614.459L725.261 612.459L725.255 612.459L725.209 614.459ZM688.114 600.564L689.463 599.087L688.114 600.564ZM670.036 570.769L668.132 571.382L670.036 570.769ZM664.939 539.633L666.938 539.588V539.588L664.939 539.633ZM665.378 528.186L663.391 527.957V527.957L665.378 528.186ZM666.006 524.318L664.056 523.873L666.006 524.318ZM666.747 522.051L668.509 522.997V522.997L666.747 522.051ZM718.88 494.551L718.81 492.552L718.88 494.551ZM759.447 503.656L758.531 505.434V505.434L759.447 503.656ZM718.845 493.551L718.915 495.55L718.845 493.551ZM759.905 502.767L760.822 500.99V500.99L759.905 502.767ZM665.866 521.578L667.628 522.524L667.628 522.524L665.866 521.578ZM665.031 524.095L666.981 524.54L666.981 524.54L665.031 524.095ZM664.384 528.071L666.371 528.3V528.3L664.384 528.071ZM663.939 539.655L665.939 539.61L663.939 539.655ZM669.084 571.076L670.988 570.463L669.084 571.076ZM687.44 601.302L686.091 602.779L687.44 601.302ZM725.183 615.458L725.248 613.459C725.242 613.459 725.236 613.459 725.229 613.459L725.183 615.458ZM764.022 602.41L765.402 603.857L764.022 602.41ZM780.415 570.966L778.465 570.523L780.415 570.966ZM782.82 537.73L784.816 537.609V537.609L782.82 537.73ZM781.428 525.532L779.459 525.883V525.883L781.428 525.532ZM779.67 518.916L781.448 518V518L779.67 518.916ZM772.961 511.354L774.254 509.828L774.254 509.828L772.961 511.354ZM506.931 498.865L473.656 504.68L474.344 508.62L507.62 502.805L506.931 498.865ZM559.08 481C542.633 481 529.376 485.564 520.232 490.128C515.659 492.41 512.107 494.696 509.689 496.419C508.48 497.281 507.553 498.004 506.922 498.516C506.607 498.772 506.366 498.976 506.2 499.118C506.117 499.189 506.053 499.245 506.009 499.285C505.986 499.305 505.969 499.32 505.956 499.332C505.949 499.337 505.944 499.342 505.94 499.346C505.938 499.348 505.937 499.349 505.935 499.35C505.935 499.351 505.934 499.352 505.933 499.352C505.933 499.353 505.932 499.353 507.276 500.835C508.619 502.316 508.619 502.317 508.618 502.317C508.618 502.317 508.618 502.317 508.618 502.317C508.618 502.318 508.618 502.317 508.618 502.317C508.619 502.316 508.621 502.315 508.624 502.312C508.631 502.306 508.642 502.296 508.657 502.282C508.689 502.254 508.739 502.21 508.809 502.151C508.947 502.032 509.159 501.852 509.444 501.621C510.014 501.158 510.875 500.487 512.011 499.677C514.284 498.056 517.657 495.883 522.018 493.707C530.74 489.354 543.385 485 559.08 485V481ZM624.497 512.466C625.822 510.969 625.822 510.968 625.821 510.968C625.821 510.967 625.82 510.967 625.82 510.966C625.818 510.965 625.816 510.963 625.814 510.961C625.809 510.956 625.802 510.95 625.793 510.942C625.775 510.926 625.748 510.904 625.715 510.874C625.647 510.815 625.547 510.729 625.417 510.617C625.157 510.394 624.775 510.07 624.28 509.66C623.289 508.839 621.842 507.671 620.008 506.272C616.341 503.475 611.114 499.746 604.866 496.016C592.431 488.59 575.696 481 559.08 481V485C574.605 485 590.578 492.143 602.816 499.45C608.905 503.086 614.005 506.724 617.582 509.452C619.37 510.815 620.774 511.95 621.728 512.74C622.205 513.135 622.57 513.444 622.813 513.653C622.934 513.757 623.026 513.837 623.086 513.889C623.116 513.915 623.138 513.934 623.152 513.947C623.159 513.953 623.164 513.958 623.167 513.96C623.169 513.962 623.17 513.963 623.171 513.963C623.171 513.963 623.171 513.963 623.171 513.964C623.171 513.963 623.171 513.963 624.497 512.466ZM640 510.466H624.497V514.466H640V510.466ZM640 514.466H655.503V510.466H640V514.466ZM655.503 512.466C656.829 513.963 656.829 513.963 656.829 513.964C656.829 513.963 656.829 513.963 656.829 513.963C656.83 513.963 656.831 513.962 656.833 513.96C656.836 513.958 656.841 513.953 656.848 513.947C656.862 513.934 656.884 513.915 656.914 513.889C656.974 513.837 657.066 513.757 657.187 513.653C657.43 513.444 657.795 513.135 658.272 512.74C659.226 511.95 660.63 510.815 662.418 509.452C665.995 506.724 671.095 503.086 677.184 499.45C689.422 492.143 705.395 485 720.92 485V481C704.304 481 687.569 488.59 675.134 496.016C668.886 499.746 663.659 503.475 659.992 506.272C658.158 507.671 656.711 508.839 655.72 509.66C655.225 510.07 654.843 510.394 654.583 510.617C654.453 510.729 654.353 510.815 654.285 510.874C654.252 510.904 654.225 510.926 654.207 510.942C654.198 510.95 654.191 510.956 654.186 510.961C654.184 510.963 654.182 510.965 654.18 510.966C654.18 510.967 654.179 510.967 654.179 510.968C654.178 510.968 654.178 510.969 655.503 512.466ZM720.92 485C736.615 485 749.26 489.354 757.982 493.707C762.343 495.883 765.716 498.056 767.989 499.677C769.125 500.487 769.986 501.158 770.556 501.621C770.841 501.852 771.053 502.032 771.191 502.151C771.261 502.21 771.311 502.254 771.343 502.282C771.358 502.296 771.369 502.306 771.376 502.312C771.379 502.315 771.381 502.316 771.382 502.317C771.382 502.317 771.382 502.318 771.382 502.317C771.382 502.317 771.382 502.317 771.382 502.317C771.381 502.317 771.381 502.316 772.724 500.835C774.068 499.353 774.067 499.353 774.067 499.352C774.066 499.352 774.065 499.351 774.065 499.35C774.063 499.349 774.062 499.348 774.06 499.346C774.056 499.342 774.051 499.337 774.044 499.332C774.031 499.32 774.014 499.305 773.991 499.285C773.947 499.245 773.883 499.189 773.8 499.118C773.634 498.976 773.393 498.772 773.078 498.516C772.447 498.004 771.52 497.281 770.311 496.419C767.893 494.696 764.341 492.41 759.768 490.128C750.624 485.564 737.367 481 720.92 481V485ZM772.38 502.805L805.656 508.62L806.344 504.68L773.069 498.865L772.38 502.805ZM804 506.65V525.26H808V506.65H804ZM805.088 523.481L793.744 529.296L795.568 532.856L806.912 527.04L805.088 523.481ZM794.656 531.076C792.66 530.955 792.66 530.955 792.66 530.955C792.66 530.955 792.66 530.956 792.66 530.957C792.66 530.958 792.659 530.96 792.659 530.964C792.659 530.97 792.658 530.981 792.657 530.995C792.655 531.023 792.653 531.066 792.649 531.124C792.641 531.239 792.63 531.411 792.613 531.638C792.581 532.092 792.529 532.763 792.456 533.626C792.31 535.351 792.076 537.842 791.724 540.891C791.02 546.992 789.847 555.312 787.972 564.2C786.096 573.097 783.528 582.512 780.049 590.823C776.556 599.168 772.222 606.21 766.918 610.561L769.455 613.654C775.495 608.699 780.142 600.96 783.739 592.367C787.35 583.74 789.981 574.06 791.886 565.026C793.793 555.982 794.984 547.534 795.698 541.349C796.055 538.256 796.293 535.724 796.442 533.963C796.517 533.083 796.569 532.395 796.603 531.925C796.62 531.69 796.632 531.51 796.64 531.388C796.644 531.326 796.647 531.28 796.649 531.248C796.65 531.232 796.651 531.22 796.652 531.211C796.652 531.207 796.652 531.204 796.652 531.201C796.652 531.2 796.652 531.199 796.652 531.198C796.652 531.198 796.652 531.197 794.656 531.076ZM766.918 610.561C745.016 628.527 710.404 628.458 685.409 610.484L683.074 613.731C709.355 632.63 745.982 632.908 769.455 613.654L766.918 610.561ZM685.409 610.484C679.366 606.138 674.236 599.085 669.945 590.753C665.668 582.446 662.305 573.026 659.721 564.121C657.14 555.223 655.35 546.889 654.207 540.777C653.635 537.722 653.225 535.226 652.959 533.497C652.826 532.633 652.728 531.96 652.665 531.506C652.633 531.278 652.609 531.105 652.594 530.99C652.586 530.933 652.58 530.89 652.577 530.862C652.575 530.848 652.573 530.837 652.573 530.831C652.572 530.827 652.572 530.825 652.572 530.823C652.572 530.823 652.572 530.822 652.571 530.822C652.571 530.822 652.571 530.822 650.588 531.076C648.604 531.33 648.604 531.331 648.604 531.331C648.604 531.332 648.604 531.333 648.604 531.334C648.605 531.337 648.605 531.34 648.606 531.344C648.607 531.353 648.608 531.365 648.611 531.381C648.615 531.413 648.621 531.46 648.629 531.522C648.646 531.645 648.67 531.826 648.703 532.061C648.77 532.533 648.869 533.223 649.006 534.106C649.278 535.872 649.694 538.411 650.275 541.512C651.435 547.713 653.252 556.179 655.879 565.235C658.504 574.283 661.952 583.968 666.389 592.584C670.812 601.174 676.298 608.858 683.074 613.731L685.409 610.484ZM650.588 529.076H640V533.076H650.588V529.076ZM629.412 533.076H640V529.076H629.412V533.076ZM596.926 613.731C603.702 608.858 609.188 601.174 613.611 592.584C618.048 583.968 621.496 574.283 624.121 565.235C626.748 556.179 628.565 547.713 629.725 541.512C630.306 538.411 630.722 535.872 630.994 534.106C631.131 533.223 631.23 532.533 631.297 532.061C631.33 531.826 631.354 531.645 631.371 531.522C631.379 531.46 631.385 531.413 631.389 531.381C631.392 531.365 631.393 531.353 631.394 531.344C631.395 531.34 631.395 531.337 631.396 531.334C631.396 531.333 631.396 531.332 631.396 531.331C631.396 531.331 631.396 531.33 629.412 531.076C627.429 530.822 627.429 530.822 627.429 530.822C627.428 530.822 627.428 530.823 627.428 530.823C627.428 530.825 627.428 530.827 627.427 530.831C627.427 530.837 627.425 530.848 627.423 530.862C627.42 530.89 627.414 530.933 627.406 530.99C627.391 531.105 627.367 531.278 627.335 531.506C627.272 531.96 627.174 532.633 627.041 533.497C626.775 535.226 626.365 537.722 625.793 540.777C624.65 546.889 622.86 555.223 620.279 564.121C617.695 573.026 614.332 582.446 610.055 590.753C605.764 599.085 600.634 606.138 594.591 610.484L596.926 613.731ZM510.545 613.654C534.018 632.908 570.645 632.63 596.926 613.731L594.591 610.484C569.596 628.458 534.984 628.527 513.082 610.561L510.545 613.654ZM485.344 531.076C483.348 531.197 483.348 531.198 483.348 531.198C483.348 531.199 483.348 531.2 483.348 531.201C483.348 531.204 483.348 531.207 483.348 531.211C483.349 531.22 483.35 531.232 483.351 531.248C483.353 531.28 483.356 531.326 483.36 531.388C483.368 531.51 483.38 531.69 483.397 531.925C483.431 532.395 483.483 533.083 483.558 533.963C483.707 535.724 483.945 538.256 484.302 541.349C485.016 547.534 486.207 555.982 488.114 565.026C490.019 574.06 492.65 583.74 496.261 592.367C499.858 600.96 504.505 608.699 510.545 613.654L513.082 610.561C507.778 606.21 503.444 599.168 499.951 590.823C496.472 582.512 493.904 573.097 492.028 564.2C490.153 555.312 488.98 546.992 488.276 540.891C487.924 537.842 487.69 535.351 487.544 533.626C487.471 532.763 487.419 532.092 487.387 531.638C487.37 531.411 487.359 531.239 487.351 531.124C487.347 531.066 487.345 531.023 487.343 530.995C487.342 530.981 487.341 530.97 487.341 530.964C487.341 530.96 487.34 530.958 487.34 530.957C487.34 530.956 487.34 530.955 487.34 530.955C487.34 530.955 487.34 530.955 485.344 531.076ZM473.088 527.04L484.432 532.856L486.256 529.296L474.912 523.481L473.088 527.04ZM472 506.65V525.26H476V506.65H472ZM502.997 520.29C503.794 518.742 505.764 516.367 508.979 513.642L506.392 510.591C503.014 513.454 500.588 516.231 499.441 518.458L502.997 520.29ZM501.525 526.059C502.102 522.826 502.682 520.901 502.997 520.29L499.441 518.458C498.817 519.669 498.159 522.149 497.587 525.356L501.525 526.059ZM500.175 537.913C500.46 533.237 500.969 529.172 501.525 526.059L497.587 525.356C497.002 528.634 496.476 532.853 496.182 537.67L500.175 537.913ZM502.51 570.301C499.935 558.972 499.603 547.28 500.175 537.913L496.182 537.67C495.594 547.295 495.927 559.386 498.61 571.188L502.51 570.301ZM518.049 600.239C509.871 592.435 505.088 581.644 502.51 570.301L498.61 571.188C501.29 582.981 506.344 594.599 515.288 603.133L518.049 600.239ZM554.722 612.46C537.848 613.004 526.164 607.982 518.049 600.239L515.288 603.133C524.27 611.704 537.038 617.033 554.851 616.458L554.722 612.46ZM554.739 612.459L554.734 612.459L554.839 616.458L554.844 616.458L554.739 612.459ZM590.537 599.087C582.066 606.822 570.517 612.097 554.745 612.459L554.837 616.458C571.539 616.074 584.024 610.451 593.234 602.041L590.537 599.087ZM608.06 570.157C604.597 580.918 599.054 591.311 590.537 599.087L593.234 602.041C602.418 593.655 608.265 582.577 611.868 571.382L608.06 570.157ZM613.062 539.588C612.863 548.404 611.522 559.401 608.06 570.157L611.868 571.382C615.472 560.184 616.855 548.792 617.061 539.678L613.062 539.588ZM612.635 528.414C612.974 531.358 613.161 535.183 613.062 539.588L617.061 539.678C617.163 535.119 616.972 531.109 616.609 527.957L612.635 528.414ZM612.044 524.762C612.261 525.715 612.466 526.941 612.635 528.414L616.609 527.957C616.428 526.382 616.202 525.005 615.944 523.873L612.044 524.762ZM611.491 522.997C611.608 523.216 611.817 523.766 612.044 524.762L615.944 523.873C615.692 522.767 615.388 521.801 615.015 521.106L611.491 522.997ZM561.049 496.549C592.438 497.654 607.406 515.385 611.491 522.997L615.015 521.106C610.37 512.449 594.224 493.714 561.19 492.552L561.049 496.549ZM521.469 505.434C531.683 500.167 545.335 495.996 561.049 496.549L561.19 492.552C544.685 491.971 530.357 496.35 519.636 501.879L521.469 505.434ZM508.979 513.642C512.143 510.96 516.363 508.067 521.469 505.434L519.636 501.879C514.276 504.643 509.801 507.702 506.392 510.591L508.979 513.642ZM561.225 491.552C544.522 490.965 530.025 495.396 519.178 500.99L521.011 504.545C531.351 499.213 545.173 494.99 561.085 495.55L561.225 491.552ZM615.896 520.633C611.112 511.715 594.671 492.729 561.225 491.552L561.085 495.55C592.885 496.669 608.147 514.651 612.372 522.524L615.896 520.633ZM616.919 523.65C616.66 522.516 616.333 521.447 615.896 520.633L612.372 522.524C612.553 522.862 612.786 523.516 613.019 524.54L616.919 523.65ZM617.603 527.843C617.419 526.242 617.187 524.828 616.919 523.65L613.019 524.54C613.247 525.538 613.456 526.801 613.629 528.3L617.603 527.843ZM618.06 539.7C618.164 535.103 617.971 531.046 617.603 527.843L613.629 528.3C613.974 531.296 614.162 535.167 614.061 539.61L618.06 539.7ZM612.82 571.688C616.459 560.379 617.853 548.888 618.06 539.7L614.061 539.61C613.861 548.501 612.509 559.596 609.012 570.463L612.82 571.688ZM593.909 602.779C603.259 594.242 609.182 582.992 612.82 571.688L609.012 570.463C605.514 581.333 599.895 591.897 591.212 599.825L593.909 602.779ZM554.863 617.458C571.795 617.068 584.513 611.358 593.909 602.779L591.212 599.825C582.556 607.729 570.773 613.091 554.771 613.459L554.863 617.458ZM514.598 603.857C523.796 612.634 536.834 618.039 554.881 617.457L554.752 613.459C537.644 614.011 525.69 608.912 517.359 600.963L514.598 603.857ZM497.635 571.409C500.341 583.316 505.463 595.14 514.598 603.857L517.359 600.963C508.989 592.976 504.139 581.978 501.535 570.523L497.635 571.409ZM495.184 537.609C494.592 547.299 494.925 559.49 497.635 571.409L501.535 570.523C498.933 559.075 498.6 547.284 499.177 537.852L495.184 537.609ZM496.603 525.18C496.01 528.5 495.48 532.757 495.184 537.609L499.177 537.852C499.464 533.141 499.978 529.038 500.541 525.883L496.603 525.18ZM498.552 518C497.851 519.36 497.174 521.979 496.603 525.18L500.541 525.883C501.116 522.657 501.715 520.593 502.108 519.832L498.552 518ZM505.746 509.828C502.326 512.726 499.787 515.603 498.552 518L502.108 519.832C502.993 518.114 505.076 515.639 508.332 512.88L505.746 509.828ZM519.178 500.99C513.754 503.787 509.215 506.887 505.746 509.828L508.332 512.88C511.558 510.146 515.841 507.211 521.011 504.545L519.178 500.99ZM780.559 518.458C779.412 516.231 776.986 513.454 773.608 510.591L771.021 513.642C774.236 516.367 776.206 518.742 777.003 520.29L780.559 518.458ZM782.413 525.356C781.841 522.149 781.183 519.669 780.559 518.458L777.003 520.29C777.318 520.901 777.898 522.826 778.475 526.059L782.413 525.356ZM783.818 537.669C783.524 532.853 782.998 528.634 782.413 525.356L778.475 526.059C779.031 529.172 779.54 533.237 779.825 537.913L783.818 537.669ZM781.39 571.188C784.073 559.386 784.406 547.295 783.818 537.67L779.825 537.913C780.397 547.28 780.065 558.972 777.49 570.301L781.39 571.188ZM764.712 603.133C773.656 594.599 778.71 582.981 781.39 571.188L777.49 570.301C774.912 581.644 770.129 592.435 761.951 600.239L764.712 603.133ZM725.149 616.458C742.962 617.033 755.73 611.704 764.712 603.133L761.951 600.239C753.836 607.982 742.152 613.004 725.278 612.46L725.149 616.458ZM725.156 616.458L725.161 616.458L725.266 612.459L725.261 612.459L725.156 616.458ZM686.766 602.041C695.976 610.451 708.461 616.074 725.163 616.458L725.255 612.459C709.483 612.097 697.934 606.822 689.463 599.087L686.766 602.041ZM668.132 571.382C671.735 582.577 677.582 593.655 686.766 602.041L689.463 599.087C680.946 591.311 675.403 580.918 671.94 570.157L668.132 571.382ZM662.939 539.678C663.145 548.792 664.528 560.184 668.132 571.382L671.94 570.157C668.478 559.401 667.137 548.404 666.938 539.588L662.939 539.678ZM663.391 527.957C663.028 531.109 662.837 535.119 662.939 539.678L666.938 539.588C666.839 535.183 667.026 531.358 667.365 528.414L663.391 527.957ZM664.056 523.873C663.798 525.005 663.572 526.382 663.391 527.957L667.365 528.414C667.534 526.941 667.739 525.715 667.956 524.762L664.056 523.873ZM664.985 521.106C664.612 521.801 664.308 522.767 664.056 523.873L667.956 524.762C668.183 523.766 668.392 523.216 668.509 522.997L664.985 521.106ZM718.81 492.552C685.776 493.714 669.63 512.449 664.985 521.106L668.509 522.997C672.594 515.385 687.562 497.654 718.951 496.549L718.81 492.552ZM760.364 501.879C749.643 496.35 735.315 491.971 718.81 492.552L718.951 496.549C734.665 495.996 748.317 500.167 758.531 505.434L760.364 501.879ZM773.608 510.591C770.199 507.702 765.724 504.643 760.364 501.879L758.531 505.434C763.637 508.067 767.857 510.96 771.021 513.642L773.608 510.591ZM718.915 495.55C734.827 494.99 748.649 499.213 758.989 504.545L760.822 500.99C749.975 495.396 735.478 490.965 718.775 491.552L718.915 495.55ZM667.628 522.524C671.853 514.651 687.115 496.669 718.915 495.55L718.775 491.552C685.329 492.729 668.888 511.715 664.104 520.633L667.628 522.524ZM666.981 524.54C667.214 523.516 667.447 522.862 667.628 522.524L664.104 520.633C663.667 521.447 663.34 522.516 663.081 523.65L666.981 524.54ZM666.371 528.3C666.544 526.801 666.753 525.538 666.981 524.54L663.081 523.65C662.813 524.828 662.581 526.242 662.397 527.843L666.371 528.3ZM665.939 539.61C665.838 535.167 666.026 531.296 666.371 528.3L662.397 527.843C662.029 531.046 661.836 535.103 661.94 539.7L665.939 539.61ZM670.988 570.463C667.491 559.596 666.139 548.501 665.939 539.61L661.94 539.7C662.147 548.888 663.541 560.379 667.18 571.688L670.988 570.463ZM688.788 599.825C680.105 591.897 674.486 581.333 670.988 570.463L667.18 571.688C670.818 582.992 676.741 594.242 686.091 602.779L688.788 599.825ZM725.229 613.459C709.227 613.091 697.444 607.729 688.788 599.825L686.091 602.779C695.487 611.358 708.205 617.068 725.137 617.458L725.229 613.459ZM762.641 600.963C754.31 608.912 742.356 614.011 725.248 613.459L725.119 617.457C743.166 618.039 756.204 612.634 765.402 603.857L762.641 600.963ZM778.465 570.523C775.861 581.978 771.011 592.976 762.641 600.963L765.402 603.857C774.537 595.14 779.659 583.316 782.365 571.409L778.465 570.523ZM780.823 537.852C781.4 547.284 781.067 559.075 778.465 570.523L782.365 571.409C785.075 559.49 785.408 547.299 784.816 537.609L780.823 537.852ZM779.459 525.883C780.022 529.038 780.536 533.141 780.823 537.852L784.816 537.609C784.52 532.757 783.99 528.5 783.397 525.18L779.459 525.883ZM777.892 519.832C778.285 520.593 778.884 522.657 779.459 525.883L783.397 525.18C782.826 521.979 782.149 519.36 781.448 518L777.892 519.832ZM771.668 512.88C774.924 515.639 777.007 518.114 777.892 519.832L781.448 518C780.213 515.603 777.674 512.726 774.254 509.828L771.668 512.88ZM758.989 504.545C764.159 507.211 768.442 510.146 771.668 512.88L774.254 509.828C770.785 506.887 766.246 503.787 760.822 500.99L758.989 504.545Z" fill="black"/></g></g></g>    </g><g id="notion-avatar-hair">      <!--?xml version="1.0" encoding="UTF-8"?-->    <title>Hairstyle/ 6</title>    <g id="Hairstyle/-6" stroke="none" stroke-width="1" fill="none" fill-rule="evenodd" stroke-linecap="round" stroke-linejoin="round">        <path d="M279,719 L312,727 L361,805 C345.104968,795.793015 330.104968,783.793015 316,769 C301.895032,754.206985 289.561699,737.540318 279,719 Z M343,303 C367,222.333333 442.666667,202.333333 570,243 C761,304 782,471 782,496 C782,512.666667 778.333333,533.666667 771,559 L769.377742,556.788495 C742.968282,520.931086 720.842368,498.001587 703,488 C652.173973,459.509334 588.817434,464 549,464 C509.182566,464 428.104379,430.95793 412,428 C409.688334,427.575411 401.590927,431.429106 429,448 L430.116018,448.665115 C436.887544,452.645909 447.182205,457.757538 461,464 C447.596463,464.038164 432.312171,461.806007 415.147123,457.303529 L412.503541,456.598811 C395.711977,452.076418 384.642719,448.384272 379.295767,445.522372 L380.06813,448.7074 C388.26572,482.685415 392.364515,505.362636 392.364515,516.739062 C392.364515,528.232771 383.924355,572.72458 367.044035,650.214489 L366,655 C350.666667,619.666667 338.333333,596 329,584 C315,566 300.202254,555.429256 288,559 L287.245493,559.229979 C278.745889,561.917334 258.53666,571.367129 244,589 C238.749387,595.368958 233.08272,607.368958 227,625 L226.065502,623.594497 C212.50066,603.100798 205.145493,587.902633 204,578 C200.118123,544.441696 214.597053,517.355586 214,510 C210.524124,467.177849 188,403 244,358 L246.2348,356.214 C282.6516,327.271333 314.906667,309.533333 343,303 Z" id="Shape" stroke="#000000" stroke-width="12" fill="#000000"/>    </g>    </g><g id="notion-avatar-accessories">      <!--?xml version="1.0" encoding="UTF-8"?-->    <title>Accessories/ 0</title>    <g id="Accessories/-0" stroke="none" stroke-width="1" fill="none" fill-rule="evenodd"/>    </g><g id="notion-avatar-details">      <g id="Details/ 12"><g id="Group"><path id="Path" fill-rule="evenodd" clip-rule="evenodd" d="M511.307 445.692C511.307 445.692 487.802 466.737 479.157 484.515C470.511 502.293 465.201 540.499 465.201 540.499C465.201 540.499 474.765 503.28 482.827 486.703C490.889 470.125 511.307 445.692 511.307 445.692Z" fill="black" stroke="black" stroke-width="2" stroke-linecap="round" stroke-linejoin="round"/><path id="Path_2" fill-rule="evenodd" clip-rule="evenodd" d="M478.14 452.968C478.14 452.968 468.587 468.207 465.775 476.369C462.963 484.53 460.527 497.199 462.555 498.204C464.582 499.21 465.445 484.848 467.592 477.026C469.739 469.204 478.14 452.968 478.14 452.968Z" fill="black" stroke="black" stroke-width="2" stroke-linecap="round" stroke-linejoin="round"/></g></g>    </g><g id="notion-avatar-beard">      <g id="Beard/ 15"><g id="Group"><g id="Combined Shape"><path fill-rule="evenodd" clip-rule="evenodd" d="M369.784 644H359.784C359.784 644 341.471 799.286 411.784 857C482.098 914.714 569.784 925 615 925C660.216 925 690.216 905 707 887C723.784 869 756.082 808.293 743 804C740.172 803.072 729.363 801.658 713.81 800.202C710.947 812.016 705.396 824.233 697.53 835C696.321 836.654 695.156 838.263 694.023 839.826C675.301 865.663 665.637 879 621.229 879C574.135 879 564.884 878 525.238 840C514.752 829.95 507.447 819.544 502.766 809.407C500.067 811.055 497.593 812.617 495.291 814.07C475.74 826.412 468.584 830.929 441 814C406.784 793 369.784 644 369.784 644Z" fill="black"/><path d="M359.784 644V638C356.742 638 354.182 640.276 353.826 643.297L359.784 644ZM369.784 644L375.607 642.554C374.943 639.878 372.541 638 369.784 638V644ZM411.784 857L415.591 852.362H415.591L411.784 857ZM743 804L741.129 809.701L743 804ZM713.81 800.202L714.369 794.228C711.402 793.95 708.681 795.893 707.979 798.789L713.81 800.202ZM697.53 835L702.375 838.539L702.375 838.539L697.53 835ZM694.023 839.826L698.881 843.347H698.881L694.023 839.826ZM525.238 840L521.086 844.332H521.086L525.238 840ZM502.766 809.407L508.214 806.892C507.496 805.338 506.149 804.165 504.511 803.667C502.873 803.169 501.101 803.394 499.64 804.286L502.766 809.407ZM495.291 814.07L492.088 808.997L492.088 808.997L495.291 814.07ZM441 814L444.139 808.886L441 814ZM359.784 650H369.784V638H359.784V650ZM415.591 852.362C382.46 825.168 369.587 774.171 365.392 728.311C363.317 705.625 363.406 684.684 364.017 669.405C364.322 661.772 364.757 655.567 365.114 651.284C365.292 649.142 365.451 647.482 365.565 646.364C365.622 645.806 365.667 645.383 365.698 645.103C365.713 644.963 365.725 644.859 365.733 644.792C365.736 644.759 365.739 644.735 365.741 644.72C365.742 644.712 365.742 644.707 365.743 644.704C365.743 644.703 365.743 644.702 365.743 644.702C365.743 644.702 365.743 644.703 359.784 644C353.826 643.297 353.825 643.299 353.825 643.302C353.825 643.304 353.824 643.307 353.824 643.31C353.823 643.317 353.822 643.326 353.821 643.337C353.818 643.36 353.815 643.392 353.81 643.433C353.8 643.516 353.787 643.636 353.77 643.791C353.736 644.103 353.687 644.559 353.626 645.152C353.506 646.337 353.34 648.069 353.155 650.287C352.786 654.721 352.339 661.099 352.026 668.925C351.401 684.566 351.306 706.054 353.442 729.404C357.668 775.614 370.795 831.118 407.977 861.638L415.591 852.362ZM615 919C570.41 919 484.361 908.81 415.591 852.362L407.977 861.638C479.834 920.619 569.159 931 615 931V919ZM702.612 882.908C686.755 899.914 658.27 919 615 919V931C662.162 931 693.677 910.086 711.388 891.092L702.612 882.908ZM741.129 809.701C739.838 809.277 739.837 808.156 739.972 809.006C740.132 810.007 740.062 811.932 739.395 814.956C738.09 820.872 734.981 828.945 730.781 837.784C722.358 855.506 710.4 874.556 702.612 882.908L711.388 891.092C720.385 881.444 732.967 861.14 741.619 842.935C745.955 833.811 749.517 824.777 751.113 817.541C751.897 813.989 752.335 810.326 751.822 807.115C751.286 803.754 749.433 799.796 744.871 798.299L741.129 809.701ZM713.251 806.176C720.985 806.9 727.498 807.61 732.402 808.249C737.561 808.921 740.36 809.448 741.129 809.701L744.871 798.299C742.813 797.624 738.793 796.98 733.952 796.349C728.856 795.685 722.188 794.96 714.369 794.228L713.251 806.176ZM702.375 838.539C710.705 827.138 716.592 814.199 719.641 801.615L707.979 798.789C705.303 809.834 700.088 821.328 692.685 831.461L702.375 838.539ZM698.881 843.347C700.015 841.783 701.174 840.183 702.375 838.539L692.685 831.461C691.469 833.126 690.296 834.744 689.164 836.306L698.881 843.347ZM621.229 885C643.975 885 658.806 881.598 670.481 874.163C681.936 866.868 689.689 856.033 698.881 843.347L689.164 836.306C679.635 849.456 673.195 858.208 664.035 864.041C655.096 869.734 642.892 873 621.229 873V885ZM521.086 844.332C540.889 863.312 553.891 873.878 568.309 879.358C582.687 884.823 597.95 885 621.229 885V873C597.414 873 584.505 872.677 572.572 868.141C560.68 863.621 549.233 854.688 529.39 835.668L521.086 844.332ZM497.319 811.923C502.343 822.802 510.11 833.812 521.086 844.332L529.39 835.668C519.394 826.088 512.551 816.286 508.214 806.892L497.319 811.923ZM498.494 819.144C500.799 817.689 503.237 816.15 505.893 814.529L499.64 804.286C496.897 805.961 494.387 807.545 492.088 808.997L498.494 819.144ZM437.861 819.114C451.808 827.673 461.898 831.698 471.591 830.996C481.08 830.309 489.124 825.059 498.494 819.144L492.088 808.997C481.907 815.424 476.597 818.603 470.725 819.028C465.056 819.438 457.776 817.256 444.139 808.886L437.861 819.114ZM369.784 644C363.961 645.446 363.961 645.447 363.962 645.449C363.962 645.45 363.963 645.452 363.963 645.455C363.965 645.46 363.966 645.468 363.969 645.477C363.974 645.497 363.981 645.525 363.99 645.563C364.009 645.637 364.036 645.747 364.073 645.891C364.145 646.18 364.253 646.605 364.394 647.16C364.676 648.269 365.094 649.893 365.637 651.965C366.723 656.108 368.31 662.042 370.322 669.227C374.344 683.59 380.07 702.981 386.879 723.053C393.678 743.094 401.606 763.961 410.048 781.215C414.269 789.841 418.678 797.687 423.211 804.122C427.686 810.473 432.567 815.864 437.861 819.114L444.139 808.886C440.879 806.886 437.119 803.027 433.021 797.21C428.982 791.477 424.887 784.238 420.827 775.941C412.709 759.351 404.971 739.031 398.243 719.197C391.525 699.394 385.863 680.223 381.878 665.992C379.886 658.879 378.316 653.01 377.245 648.922C376.709 646.879 376.299 645.281 376.022 644.197C375.884 643.655 375.78 643.242 375.71 642.965C375.675 642.827 375.649 642.722 375.632 642.654C375.624 642.619 375.617 642.594 375.613 642.577C375.611 642.569 375.609 642.563 375.609 642.559C375.608 642.557 375.608 642.556 375.608 642.555C375.607 642.554 375.607 642.554 369.784 644Z" fill="black"/></g><path id="Path" fill-rule="evenodd" clip-rule="evenodd" d="M698.059 729.721C698.059 729.721 701.033 737.719 699.086 738.906C697.74 739.726 669 722.832 616 723C563 723.168 534.188 739.683 532.914 738.906C530.905 737.681 533 732 534.94 729.721C541.033 724.945 571.31 714.711 602.246 712.449C606.205 712.16 610 716.002 616 716.001C622 716 626.18 712.101 629.327 712.287C661.138 714.165 691.805 724.818 698.059 729.721Z" fill="black" stroke="black" stroke-width="12" stroke-linecap="round" stroke-linejoin="round"/><path id="Path_2" fill-rule="evenodd" clip-rule="evenodd" d="M591 867C591 867 604.444 870 616 870C627.556 870 639 867 639 867L648 890H583L591 867Z" fill="black" stroke="black" stroke-width="12" stroke-linecap="round" stroke-linejoin="round"/></g></g>    </g>      </g>      </svg>